<svg height="449pt" viewBox="-41 0 449 449.73" width="449pt" xmlns="http://www.w3.org/2000/svg"><path d="m183.664062 449.730469c19.378907-.007813 35.09375-15.707031 35.113282-35.085938 0-4.5-.828125-9.554687-2.238282-12.554687h-65.734374c-1.402344 3-2.25 8.160156-2.25 12.621094.039062 19.359374 15.75 35.03125 35.109374 35.019531zm0 0"/><path d="m362.269531 365.570312c-9.375-6.390624-17.074219-14.945312-22.449219-24.9375-11.6875-22.300781-31.300781-70.046874-31.300781-139.332031 0-32.164062-13.617187-64.886719-37.363281-89.78125-23.957031-25.113281-55.847656-39.519531-87.492188-39.519531-31.644531 0-63.53125 14.410156-87.488281 39.539062-23.746093 24.902344-37.367187 57.636719-37.367187 89.800782 0 73.699218-21.558594 121.9375-34.410156 144.136718-4.734376 7.996094-11.136719 14.878907-18.769532 20.179688-.5.351562-.972656.738281-1.410156 1.167969-2.472656 2.582031-3.851562 6.023437-3.855469 9.597656 0 7.386719 6.011719 13.671875 13.121094 13.671875h340.359375c7.113281 0 13.121094-6.285156 13.121094-13.671875 0-3.457031-1.382813-7.789063-3.023438-9.429687-.515625-.519532-1.074218-.996094-1.671875-1.421876zm0 0"/><path d="m213.519531 29.988281c0-16.5625-13.367187-29.988281-29.855469-29.988281-16.484374 0-29.851562 13.425781-29.851562 29.988281 0 16.558594 13.367188 29.984375 29.851562 29.984375 16.488282 0 29.855469-13.425781 29.855469-29.984375zm0 0"/></svg>