<svg id="visual" viewBox="0 0 900 600" width="900" height="600" xmlns="http://www.w3.org/2000/svg" xmlns:xlink="http://www.w3.org/1999/xlink" version="1.1"><path d="M0 507L10 501.2C20 495.3 40 483.7 60 488.3C80 493 100 514 120 518.5C140 523 160 511 180 515.2C200 519.3 220 539.7 240 539.7C260 539.7 280 519.3 300 511C320 502.7 340 506.3 360 504.8C380 503.3 400 496.7 420 499.5C440 502.3 460 514.7 480 520.2C500 525.7 520 524.3 540 518.8C560 513.3 580 503.7 600 502.2C620 500.7 640 507.3 660 515.7C680 524 700 534 720 525.3C740 516.7 760 489.3 780 487.8C800 486.3 820 510.7 840 518.7C860 526.7 880 518.3 890 514.2L900 510L900 601L890 601C880 601 860 601 840 601C820 601 800 601 780 601C760 601 740 601 720 601C700 601 680 601 660 601C640 601 620 601 600 601C580 601 560 601 540 601C520 601 500 601 480 601C460 601 440 601 420 601C400 601 380 601 360 601C340 601 320 601 300 601C280 601 260 601 240 601C220 601 200 601 180 601C160 601 140 601 120 601C100 601 80 601 60 601C40 601 20 601 10 601L0 601Z" stroke-linecap="round" stroke-linejoin="miter"></path></svg>