<?xml version="1.0" encoding="iso-8859-1"?>
<!-- Generator: Adobe Illustrator 19.0.0, SVG Export Plug-In . SVG Version: 6.00 Build 0)  -->
<svg version="1.1" id="Layer_1" xmlns="http://www.w3.org/2000/svg" xmlns:xlink="http://www.w3.org/1999/xlink" x="0px" y="0px"
	 viewBox="0 0 511.999 511.999" style="enable-background:new 0 0 511.999 511.999;" xml:space="preserve">
<g>
	<g>
		<path d="M498.437,228.348l-86.463-86.463c-13.563-13.563-38.993-13.563-54.252,0l-15.258,15.258
			c-13.563,13.563-15.258,35.603-3.391,50.861H171.232c5.087-6.781,8.477-15.258,8.477-23.735c0-10.172-3.391-20.344-11.867-27.126
			l-15.259-15.258c-13.563-13.563-38.994-15.258-54.252,0l-86.463,86.463C5.087,235.129,0,245.302,0,255.474
			c0,10.172,3.391,20.344,11.867,27.126l86.463,86.464c13.563,13.563,38.994,13.563,54.252,0l15.258-15.258
			c13.563-13.563,15.258-33.907,3.391-49.165h169.536c-10.172,15.258-10.172,35.603,3.391,49.165l15.258,15.258
			c6.781,6.781,16.954,11.868,27.126,11.868c10.172,0,20.344-3.391,27.126-11.868l86.464-86.464
			c6.781-6.781,11.868-16.954,11.868-27.126C510.304,243.607,506.913,235.129,498.437,228.348z M474.702,257.17l-86.464,86.464
			c-1.696,1.696-3.391,1.696-5.086,0l-15.258-15.258c-1.696-1.696-1.696-3.391,0-5.086l25.43-23.737
			c3.391-3.391,5.086-6.781,5.086-10.172c0-5.086-1.696-10.172-5.086-13.563c-3.391-3.391-8.477-5.086-11.868-5.086H130.543
			c-6.781,0-13.563,3.391-15.259,10.172c-3.391,6.781-1.695,13.563,3.391,18.649l25.431,23.735c1.696,1.696,1.696,3.391,0,5.086
			l-15.258,15.258c-1.696,1.696-3.391,1.696-5.087,0l-86.464-86.464c-1.695,0-1.695-1.695-1.695-3.391c0,0,0-1.696,1.695-3.391
			l86.464-86.463c1.696-1.696,3.391-1.696,5.087,0l15.258,15.258c1.696,1.696,1.696,3.391,1.696,3.391s0,1.696-1.696,3.391
			l-25.431,25.431c-5.087,5.086-6.781,11.867-3.391,18.648c3.391,6.781,8.477,10.172,15.258,10.172h249.22
			c6.781,0,13.563-3.391,15.258-10.172c3.391-6.781,1.696-13.563-3.391-18.649l-25.43-25.43c-1.696-1.696-1.696-5.087,0-6.781
			l15.258-15.258c1.696-1.696,3.391-1.696,5.086,0l86.464,86.464c1.695,1.696,1.695,1.696,1.695,3.391
			C476.397,255.474,476.397,257.17,474.702,257.17z"/>
	</g>
</g>
<g>
</g>
<g>
</g>
<g>
</g>
<g>
</g>
<g>
</g>
<g>
</g>
<g>
</g>
<g>
</g>
<g>
</g>
<g>
</g>
<g>
</g>
<g>
</g>
<g>
</g>
<g>
</g>
<g>
</g>
</svg>
