<svg id="Capa_1" enable-background="new 0 0 512 512" height="512" viewBox="0 0 512 512" width="512" xmlns="http://www.w3.org/2000/svg"><g><path d="m497 210.877h-317.573c.702 4.9 1.073 9.905 1.073 14.995v60.25c0 5.091-.371 10.096-1.073 14.995h121.823v45.26c0 8.284 6.716 15 15 15h60.25c8.284 0 15-6.716 15-15v-45.26h30.25v45.26c0 8.284 6.716 15 15 15h60.25c8.284 0 15-6.716 15-15v-120.5c0-8.284-6.716-15-15-15z"/><path d="m150.5 225.873c0-41.493-33.757-75.25-75.25-75.25s-75.25 33.756-75.25 75.25v60.25c0 41.493 33.757 75.25 75.25 75.25s75.25-33.757 75.25-75.25zm-60.25 60.25c0 8.284-6.716 15-15 15s-15-6.716-15-15v-60.25c0-8.284 6.716-15 15-15s15 6.716 15 15z"/></g></svg>