<svg height="512" viewBox="0 0 512 512" width="512" xmlns="http://www.w3.org/2000/svg"><g id="solid"><path d="m360 336c-79.4 0-144-64.6-144-144a143.848 143.848 0 0 1 36.644-95.965c-86.683 1.79-156.644 72.865-156.644 159.965 0 88.225 71.775 160 160 160a160.082 160.082 0 0 0 141.32-84.883 143.74 143.74 0 0 1 -37.32 4.883zm-224-24a8 8 0 1 1 8-8 8 8 0 0 1 -8 8zm16.719-131.249a126.972 126.972 0 0 0 -22.719 52.663 8 8 0 1 1 -15.748-2.828 143.065 143.065 0 0 1 25.591-59.337 8 8 0 1 1 12.873 9.5zm23.281 180.249a9 9 0 1 1 9-9 9 9 0 0 1 -9 9zm-8-41a8 8 0 1 1 8 8 8 8 0 0 1 -8-8zm16.183-169.36a127.818 127.818 0 0 0 -11.028 8.314 8 8 0 0 1 -10.31-12.234 144.009 144.009 0 0 1 12.412-9.36 8 8 0 0 1 8.926 13.28zm47.817 225.36a8 8 0 1 1 8-8 8 8 0 0 1 -8 8zm32 24a8 8 0 1 1 8-8 8 8 0 0 1 -8 8z"/><circle cx="302.5" cy="377.5" r="9.5"/><path d="m360.718 145.767 14.694 30.999 34.024 4.397-24.942 23.554 6.333 33.717-30.109-16.442-30.109 16.442 6.332-33.717-24.941-23.554 34.023-4.397z"/><path d="m432.718 249.767 9.868 20.819 22.85 2.952-16.75 15.819 4.253 22.643-20.221-11.042-20.221 11.042 4.253-22.643-16.75-15.819 22.849-2.952z"/></g></svg>