<svg id="Bold" height="512" viewBox="0 0 24 24" width="512" xmlns="http://www.w3.org/2000/svg"><path d="m19.366 24h-14.732c-.614 0-1.199-.265-1.604-.727s-.592-1.078-.511-1.687l1.964-14.735c.141-1.055 1.05-1.851 2.115-1.851h10.805c1.064 0 1.974.796 2.114 1.851l1.965 14.733c.081.611-.105 1.226-.511 1.688-.406.463-.991.728-1.605.728z"/><path d="m14 9c-.553 0-1-.448-1-1v-4.667c0-.722-.458-1.333-1-1.333s-1 .611-1 1.333v4.667c0 .552-.447 1-1 1s-1-.448-1-1v-4.667c0-1.837 1.346-3.333 3-3.333s3 1.496 3 3.333v4.667c0 .552-.447 1-1 1z"/></svg>