<svg xmlns="http://www.w3.org/2000/svg" viewBox="0 0 1440 320">
  <path fill-opacity="1" d="M0,192L30,192C60,192,120,192,180,170.7C240,149,300,107,360,122.7C420,139,480,213,540,208C600,203,660,117,720,101.3C780,85,840,139,900,170.7C960,203,1020,213,1080,186.7C1140,160,1200,96,1260,64C1320,32,1380,32,1410,32L1440,32L1440,320L1410,320C1380,320,1320,320,1260,320C1200,320,1140,320,1080,320C1020,320,960,320,900,320C840,320,780,320,720,320C660,320,600,320,540,320C480,320,420,320,360,320C300,320,240,320,180,320C120,320,60,320,30,320L0,320Z"></path>
</svg>